# xmcd CD database file
#
# Track frame offsets:
#	183
#	10785
#	23558
#	38583
#	51945
#	62775
#	75140
#	88833
#	101305
#	115008
#	125613
#	143733
#	156333
#	170058
#	182220
#	194133
#	208505
#	221358
#	235683
#	248555
#	260465
#	275303
#	287240
#
# Disc length: 3989 seconds
#
# Revision: 1
# Processed by: cddbd v1.5.2PL0 Copyright (c) Steve Scherf et al.
# Submitted via: CDex 1.85
#
DISCID=3c0f9317
DTITLE=AAVV - The Blues
DYEAR=1991
DGENRE=Jazz
TTITLE0=Cuttin' the Boogie (P. Johnson, A. Ammons, J.F. Hoskins)
TTITLE1=Willie Mae (Big B. Bronzy, R. Knowling)
TTITLE2=Walkin' Down A Lonesome Road (Big B. Bronzy, R. Knowling)
TTITLE3=Mindin' My Own Business (Big B. Bronzy, B. Randle)
TTITLE4=Worried Life Blues (Big B. Bronzy, B. Randle)
TTITLE5=Coffee Blues (S. Lightin Hopkins, D. Cooks)
TTITLE6=Lonesome Day Blues (JU. James)
TTITLE7=Jack O' Diamond Blues ( B. L. Jefferson)
TTITLE8=Black snake Moan ( B. L. Jefferson)
TTITLE9=Rising High Water Blues ( B. L. Jefferson, G. Perkins)
TTITLE10=Backwater Blues (J. P. Johnson)
TTITLE11=Laplegged Drunk Again (J. P. Johnson, R. Sykes))
TTITLE12=Terraplane Blues (R. Johnson)
TTITLE13=Cross Road Blues (R. Johnson)
TTITLE14=Hellhound On My Trail (R. Johnson)
TTITLE15=Honky Tonk Train Blues (M. L. Lewis)
TTITLE16=Stone Pony Blues (C. Patton)
TTITLE17=Pine Top's Boogie Woogie (Pine Top Smith)
TTITLE18=Roll' Em Pete (J. Turner, P. Johnson)
TTITLE19=New Blowtop Blues (D. Washinghton, Jimmy Cobb's Orch.)
TTITLE20=Gambler's Blues (D. Washinghton, Jimmy Cobb's Orch.)
TTITLE21=Parchman Farm Blues (Bukka White, Washbord Sam)
TTITLE22=State Street special (J Yansey)
EXTD=YEAR: 1991
EXTT0=
EXTT1=
EXTT2=
EXTT3=
EXTT4=
EXTT5=
EXTT6=
EXTT7=
EXTT8=
EXTT9=
EXTT10=
EXTT11=
EXTT12=
EXTT13=
EXTT14=
EXTT15=
EXTT16=
EXTT17=
EXTT18=
EXTT19=
EXTT20=
EXTT21=
EXTT22=
PLAYORDER=
